<svg width="22" height="38" viewBox="0 0 22 38" fill="none" xmlns="http://www.w3.org/2000/svg">
<path d="M13.5682 28.5686L11.4416 28.5686L10.7644 26.5496C10.7506 26.5138 10.7263 26.483 10.6947 26.4612C10.663 26.4395 10.6255 26.4279 10.5872 26.4279C10.5488 26.4279 10.5113 26.4395 10.4797 26.4612C10.448 26.483 10.4237 26.5138 10.4099 26.5496L9.73275 28.5686L7.60614 28.5686C7.56648 28.5676 7.52758 28.5794 7.49523 28.6024C7.46289 28.6254 7.43886 28.6582 7.42674 28.696C7.41463 28.7338 7.41507 28.7745 7.42802 28.812C7.44097 28.8495 7.46571 28.8818 7.49856 28.904L9.20742 30.1698L8.57451 32.2015C8.56485 32.2383 8.5665 32.2772 8.57923 32.3131C8.59196 32.349 8.61519 32.3802 8.6459 32.4028C8.67661 32.4253 8.71338 32.4381 8.75144 32.4394C8.7895 32.4408 8.8271 32.4306 8.85933 32.4103L10.5935 31.1445L12.3277 32.4103C12.3599 32.4306 12.3975 32.4408 12.4356 32.4394C12.4736 32.4381 12.5104 32.4253 12.5411 32.4028C12.5718 32.3802 12.5951 32.349 12.6078 32.3131C12.6205 32.2772 12.6222 32.2383 12.6125 32.2015L11.9796 30.1698L13.6884 28.904C13.7226 28.8813 13.7481 28.8478 13.761 28.8089C13.7739 28.7699 13.7734 28.7278 13.7596 28.6892C13.7458 28.6506 13.7194 28.6178 13.6847 28.5959C13.65 28.574 13.609 28.5644 13.5682 28.5686Z" fill="#E3E6E9"/>
<path d="M13.5682 20.0496L11.4416 20.0496L10.7644 18.0306C10.7539 17.9916 10.7308 17.9572 10.6988 17.9327C10.6667 17.9081 10.6275 17.8948 10.5872 17.8948C10.5468 17.8948 10.5076 17.9081 10.4756 17.9327C10.4435 17.9572 10.4204 17.9916 10.4099 18.0306L9.73275 20.0496L7.60614 20.0496C7.56648 20.0486 7.52758 20.0604 7.49523 20.0834C7.46289 20.1064 7.43886 20.1392 7.42674 20.177C7.41463 20.2148 7.41507 20.2554 7.42802 20.2929C7.44097 20.3304 7.46571 20.3628 7.49856 20.385L9.20742 21.6508L8.57451 23.6825C8.56276 23.7195 8.56308 23.7593 8.5754 23.7962C8.58773 23.833 8.61141 23.8651 8.64308 23.8876C8.67475 23.9101 8.71277 23.9219 8.75163 23.9215C8.79049 23.921 8.8282 23.9083 8.85933 23.885L10.5935 22.6508L12.3277 23.885C12.3588 23.9083 12.3965 23.921 12.4354 23.9215C12.4742 23.9219 12.5122 23.9101 12.5439 23.8876C12.5756 23.8651 12.5993 23.833 12.6116 23.7962C12.6239 23.7593 12.6242 23.7195 12.6125 23.6825L11.9796 21.6508L13.6884 20.385C13.7226 20.3623 13.7481 20.3288 13.761 20.2899C13.7739 20.251 13.7734 20.2088 13.7596 20.1702C13.7458 20.1316 13.7194 20.0988 13.6847 20.0769C13.65 20.055 13.609 20.0454 13.5682 20.0496V20.0496Z" fill="#E3E6E9"/>
<path d="M13.5682 11.5306L11.4416 11.5306L10.7644 9.5116C10.7539 9.47264 10.7308 9.43821 10.6988 9.41367C10.6667 9.38913 10.6275 9.37585 10.5872 9.37585C10.5468 9.37585 10.5076 9.38913 10.4756 9.41367C10.4435 9.43821 10.4204 9.47264 10.4099 9.5116L9.73275 11.5306L7.60614 11.5306C7.56648 11.5296 7.52758 11.5415 7.49523 11.5644C7.46289 11.5874 7.43886 11.6203 7.42674 11.658C7.41463 11.6958 7.41507 11.7365 7.42802 11.774C7.44097 11.8115 7.46571 11.8438 7.49856 11.8661L9.20742 13.1319L8.57451 15.1635C8.56276 15.2005 8.56308 15.2404 8.5754 15.2772C8.58773 15.3141 8.61141 15.3461 8.64308 15.3686C8.67475 15.3911 8.71277 15.403 8.75163 15.4025C8.79049 15.4021 8.8282 15.3893 8.85933 15.366L10.5935 14.1318L12.3277 15.366C12.3588 15.3893 12.3965 15.4021 12.4354 15.4025C12.4742 15.403 12.5122 15.3911 12.5439 15.3686C12.5756 15.3461 12.5993 15.3141 12.6116 15.2772C12.6239 15.2404 12.6242 15.2005 12.6125 15.1635L11.9796 13.1319L13.6884 11.866C13.7226 11.8433 13.7481 11.8098 13.761 11.7709C13.7739 11.732 13.7734 11.6898 13.7596 11.6512C13.7458 11.6126 13.7194 11.5798 13.6847 11.5579C13.65 11.536 13.609 11.5264 13.5682 11.5306Z" fill="#E3E6E9"/>
<path d="M10.6013 38C13.4125 37.9983 16.108 36.8809 18.0957 34.8931C20.0835 32.9054 21.2009 30.2099 21.2026 27.3987L21.2026 11.057C21.2044 10.8514 21.1248 10.6534 20.9811 10.5063L11.171 0.246821C11.0967 0.171039 11.0081 0.110842 10.9103 0.0697422C10.8125 0.0286419 10.7074 0.00747088 10.6013 0.00747089C10.4952 0.0074709 10.3902 0.0286419 10.2924 0.0697422C10.1946 0.110843 10.106 0.17104 10.0317 0.246821L0.221576 10.5063C0.0779199 10.6534 -0.00169869 10.8514 7.20266e-05 11.057L7.34553e-05 27.3987C0.00175048 30.2099 1.1192 32.9054 3.10696 34.8931C5.09472 36.8809 7.79022 37.9983 10.6013 38V38ZM1.58235 11.3671L10.6013 1.93672L19.6203 11.3671L19.6203 27.3987C19.6203 29.7907 18.6701 32.0847 16.9787 33.7761C15.2874 35.4675 12.9933 36.4177 10.6013 36.4177C8.20936 36.4177 5.91533 35.4675 4.22394 33.7761C2.53255 32.0847 1.58235 29.7907 1.58235 27.3987L1.58235 11.3671Z" fill="#FCBA42"/>
</svg>
