<?xml version="1.0" standalone="no"?>
<!DOCTYPE svg PUBLIC "-//W3C//DTD SVG 20010904//EN"
 "http://www.w3.org/TR/2001/REC-SVG-20010904/DTD/svg10.dtd">
<svg version="1.0" xmlns="http://www.w3.org/2000/svg"
 width="152.000000pt" height="152.000000pt" viewBox="0 0 152.000000 152.000000"
 preserveAspectRatio="xMidYMid meet">
<metadata>
Created by potrace 1.14, written by Peter Selinger 2001-2017
</metadata>
<g transform="translate(0.000000,152.000000) scale(0.100000,-0.100000)"
fill="#000000" stroke="none">
<path d="M664 1428 c-49 -50 -105 -108 -124 -128 -19 -20 -72 -75 -118 -122
l-83 -86 1 -371 c1 -334 3 -377 20 -425 58 -168 198 -279 371 -293 209 -17
390 115 444 324 12 45 15 129 15 409 l0 351 -36 39 c-181 194 -379 394 -389
394 -7 0 -52 -41 -101 -92z m361 -258 c45 -47 86 -94 92 -105 6 -12 9 -158 8
-360 -1 -295 -3 -347 -19 -392 -68 -203 -298 -304 -491 -214 -78 36 -140 99
-179 180 l-31 66 0 358 c-1 196 2 361 5 366 3 5 84 91 180 191 l175 182 88
-94 c49 -51 126 -131 172 -178z"/>
<path d="M741 1100 c-11 -39 -13 -40 -56 -40 -25 0 -45 -4 -45 -9 0 -5 15 -19
34 -32 l34 -23 -14 -45 c-7 -25 -12 -46 -11 -48 2 -1 20 9 40 22 20 14 39 25
42 25 4 0 22 -12 42 -27 l36 -28 -7 38 c-4 21 -9 44 -12 50 -2 7 12 23 31 36
19 13 35 27 35 32 0 4 -21 9 -47 11 -43 3 -47 6 -58 37 -16 48 -30 48 -44 1z"/>
<path d="M743 761 c-17 -43 -19 -44 -70 -41 -42 2 -42 -11 1 -41 l34 -23 -13
-42 c-7 -24 -10 -45 -8 -48 3 -3 21 6 39 21 l34 26 40 -27 c43 -28 47 -24 30
34 -5 19 -6 36 -1 39 26 17 61 47 61 52 0 3 -18 6 -41 7 -51 2 -56 5 -64 42
-10 46 -24 46 -42 1z"/>
<path d="M751 439 c-5 -13 -12 -32 -15 -41 -4 -13 -16 -18 -45 -18 -53 0 -58
-12 -16 -44 l34 -26 -15 -42 c-8 -22 -13 -43 -11 -44 2 -2 20 8 40 21 20 14
39 25 42 25 4 0 21 -11 39 -25 18 -14 35 -25 38 -25 4 0 0 21 -8 46 -15 50
-13 55 39 85 29 17 19 28 -30 31 -44 3 -49 6 -58 35 -15 44 -23 50 -34 22z"/>
</g>
</svg>
